<?xml version="1.0" encoding="UTF-8"?>
<svg id="Camada_2" xmlns="http://www.w3.org/2000/svg" viewBox="0 0 370.26 320.65">
  <defs>
    <style>
      .cls-1 {
        fill: #fff;
      }
    </style>
  </defs>
  <g id="Camada_2-2" data-name="Camada_2">
    <g>
      <path class="cls-1" d="M370.25,320.65H0L185.13,0l185.13,320.65h-.01ZM8.86,315.53h352.53L185.13,10.23,8.86,315.53Z"/>
      <g>
        <path class="cls-1" d="M318.47,262.05v56.04h-115.73l36.66-56.04h79.07ZM257.59,234.26h60.89v-93.06l-60.89,93.06h0ZM283.48,85.31l-25.9,39.18v-13.73h-24.04v50.1l-103.94,157.23h36.56l152.31-232.78h-34.99Z"/>
        <path class="cls-1" d="M185.58,155.93c0,4.34-.29,8.52-.86,12.55-5.06,35.63-32.43,58.28-79.08,58.77l60.52,90.84h-36.56l-62.74-96.66-15.09-23.24h44.35c34.25,0,50.75-11.14,54.97-30.7.76-3.5,1.12-7.26,1.12-11.28,0-3.79-.43-7.4-1.3-10.8-4.63-18.2-21.5-30.38-49.52-30.38h-49.61v-29.73h49.7c22.71,0,40.61,4.73,53.96,12.77.05.03.09.06.14.08,15.71,9.91,25.45,24.97,28.74,43.26.84,4.64,1.26,9.49,1.26,14.51h0Z"/>
      </g>
    </g>
  </g>
</svg>